<svg width="15" height="10" viewBox="0 0 15 10" fill="none" xmlns="http://www.w3.org/2000/svg">
<path d="M7.84237 5.52L5.61717 9.33103L3.39199 5.52H7.84237ZM8.43849 5.17938H2.79346L5.61717 10.0051L8.43849 5.17938Z" fill="white"/>
<path d="M11.7112 0.779916L13.9364 4.59095H9.48598L11.7112 0.779916ZM11.7112 0.0986938L8.88745 4.92441H14.5349L11.7112 0.0986938Z" fill="white"/>
<path d="M0.0880127 0.0986938L2.4556 4.36705L5.0428 0.205873L0.0880127 0.0986938Z" fill="#4CAF4F"/>
<path d="M5.61728 0.472595L8.10072 4.71714H3.12903L5.61728 0.472595Z" fill="#4CAF4F"/>
<path d="M8.74021 5.64386L11.2261 10.0051H6.13611L8.66297 5.64386H8.74021Z" fill="#4CAF4F"/>
<path d="M9.27832 5.37946L11.7111 9.67401L14.1776 5.37946H9.27832Z" fill="#4CAF4F"/>
</svg>
