<svg width="12" height="11" viewBox="0 0 12 11" fill="none" xmlns="http://www.w3.org/2000/svg">
<path d="M7.37968 5.3469C7.29929 5.3469 7.22465 5.32479 7.15834 5.28924V5.29019C7.15834 5.41667 7.10918 5.53545 7.01998 5.62441C6.93078 5.71361 6.81209 5.76277 6.68575 5.76277C6.60419 5.76277 6.5286 5.74012 6.46157 5.70362C6.45481 5.81933 6.40856 5.92748 6.32605 6.01008C6.23685 6.09928 6.11816 6.14844 5.99174 6.14844C5.74058 6.14844 5.53661 5.95101 5.52191 5.70354C5.4442 5.74554 5.35634 5.76757 5.26572 5.76175C5.01864 5.74554 4.82515 5.53207 4.82515 5.27563V3.15002L4.58311 3.56934C4.49092 3.72973 4.31836 3.82931 4.13256 3.82931C4.04202 3.82931 3.95259 3.80555 3.87338 3.76017C3.77474 3.70298 3.70419 3.61119 3.67484 3.50137C3.64535 3.39149 3.66061 3.27657 3.71763 3.17808C3.71771 3.17808 4.50956 1.80682 4.55787 1.72259C4.56361 1.70993 4.57998 1.6732 4.5939 1.64189C4.60719 1.612 4.6186 1.58132 4.62953 1.55049C4.86833 0.876318 5.45962 0.457539 6.17273 0.457539C7.09877 0.457539 7.85216 1.27448 7.85216 2.27864L7.85223 4.87424C7.85223 5.00057 7.80315 5.11926 7.71403 5.20855C7.62483 5.29775 7.50614 5.34691 7.37966 5.34691L7.37968 5.3469ZM6.17274 0.708654C5.55998 0.708654 5.07159 1.05476 4.86622 1.63447C4.85309 1.67128 4.8394 1.70809 4.82343 1.74396C4.7771 1.84787 4.7771 1.84787 4.76404 1.86281L4.76231 1.86132C4.69766 1.98332 4.50557 2.31596 3.93507 3.30376C3.91163 3.34427 3.90541 3.39131 3.91737 3.4363C3.92948 3.48129 3.95851 3.5192 3.9987 3.54241C4.12345 3.61406 4.2943 3.56781 4.36541 3.44393L4.842 2.61879C4.87047 2.56963 4.92805 2.54548 4.98327 2.56043C5.03817 2.57514 5.07632 2.62493 5.07632 2.68172V5.27571C5.07632 5.3981 5.16866 5.50373 5.28218 5.5112C5.34762 5.51466 5.40866 5.49272 5.45452 5.44694C5.49621 5.40525 5.51917 5.34972 5.51917 5.29033V3.59383C5.51917 3.52445 5.57541 3.46821 5.64479 3.46821C5.71417 3.46821 5.77041 3.52437 5.77041 3.59383L5.77033 5.67594C5.77033 5.79802 5.86967 5.89737 5.99175 5.89737C6.05106 5.89737 6.10675 5.8744 6.14852 5.83271C6.19021 5.79094 6.21317 5.73525 6.21317 5.67594V3.59383C6.21317 3.52445 6.26934 3.46821 6.33879 3.46821C6.40817 3.46821 6.46441 3.52437 6.46441 3.59383L6.46433 5.27082V5.29032C6.46433 5.41232 6.56368 5.51166 6.68583 5.51166C6.74506 5.51166 6.80059 5.48862 6.8426 5.44677C6.88429 5.40516 6.90725 5.34963 6.90725 5.29024V3.59374C6.90725 3.52436 6.96342 3.46812 7.03287 3.46812C7.10225 3.46812 7.15849 3.52428 7.15849 3.59374L7.15833 4.8743C7.15833 4.99646 7.25768 5.0958 7.37967 5.0958C7.43906 5.0958 7.49459 5.07276 7.53628 5.03115C7.57813 4.9893 7.60102 4.93361 7.60102 4.8743L7.60109 2.2787C7.60109 1.41308 6.96035 0.70868 6.17273 0.70868L6.17274 0.708654Z" fill="#103E13"/>
<path d="M2.44427 7.15087L4.26708 6.05736C4.48685 5.92537 4.76963 5.98146 4.91058 6.1851C4.96203 6.25928 4.9883 6.34572 4.99239 6.43375C5.06035 6.39827 5.13429 6.379 5.20956 6.379C5.2481 6.379 5.2868 6.3838 5.32503 6.39332C5.4475 6.42391 5.5507 6.50045 5.6156 6.60868C5.68057 6.71707 5.69953 6.84409 5.66893 6.96642C5.64069 7.07961 5.57187 7.17488 5.47614 7.24024C5.54308 7.27972 5.60081 7.33361 5.64187 7.4022C5.70685 7.51059 5.7258 7.63755 5.69528 7.76002C5.66468 7.88234 5.58815 7.98553 5.47976 8.05059L5.47913 8.05099C5.54489 8.09039 5.6016 8.14372 5.64219 8.21129C5.70724 8.31968 5.7262 8.44671 5.6956 8.56918C5.66492 8.69157 5.58839 8.79477 5.48016 8.85975L3.25447 10.195C2.83907 10.4441 2.35886 10.5301 1.90249 10.4369C1.44202 10.3428 1.06068 10.0781 0.828806 9.69157C0.461859 9.08 0.516852 8.35744 0.972043 7.80596C0.992889 7.78079 1.01342 7.75515 1.03206 7.72856C1.0518 7.70048 1.07485 7.66744 1.08272 7.65612C1.12983 7.57195 1.89865 6.18678 1.89857 6.18694C1.9762 6.04685 2.12172 5.96755 2.2718 5.96763C2.3418 5.96763 2.41283 5.98486 2.47836 6.0212C2.55749 6.0654 2.62395 6.12982 2.67044 6.20746C2.76601 6.36674 2.76939 6.56607 2.67941 6.72738L2.44427 7.15087ZM2.4552 6.33659C2.43082 6.29593 2.39731 6.26352 2.35632 6.24055C2.27161 6.19367 2.16495 6.22419 2.11831 6.30859C1.56818 7.29969 1.38065 7.63744 1.30828 7.75764L1.30993 7.75803C1.30387 7.77817 1.30387 7.77817 1.23765 7.87279C1.21515 7.9048 1.19069 7.93556 1.16575 7.96584C0.774338 8.44008 0.72889 9.03686 1.04407 9.56237C1.2393 9.88785 1.56196 10.111 1.95265 10.1908C2.34758 10.2711 2.76385 10.1964 3.12513 9.97958L5.35102 8.64428C5.40184 8.61384 5.43771 8.56547 5.45202 8.50813C5.46634 8.45086 5.45745 8.39132 5.42693 8.34051C5.36416 8.23589 5.22785 8.20152 5.12323 8.26452L4.02517 8.92329C3.9657 8.959 3.88846 8.93981 3.85283 8.88026C3.81712 8.8208 3.83639 8.74363 3.89585 8.70792L4.994 8.04916L5.35063 7.83521C5.40145 7.80469 5.43739 7.75631 5.45171 7.69913C5.46602 7.64179 5.45714 7.58216 5.42662 7.53143C5.36377 7.42673 5.22745 7.39268 5.12292 7.45545L3.66814 8.32816C3.60851 8.36395 3.53151 8.3446 3.4958 8.28514C3.46009 8.22567 3.47943 8.14851 3.53882 8.1128L5.32429 7.04172C5.3751 7.0112 5.41097 6.9629 5.42528 6.90556C5.4396 6.84829 5.43071 6.78875 5.40027 6.73794C5.36983 6.6872 5.32145 6.65133 5.26411 6.63702C5.20645 6.6227 5.14715 6.63159 5.09649 6.66195L4.76597 6.86025C4.76589 6.86025 4.76589 6.86033 4.76581 6.86033H4.76573L3.31103 7.73305C3.25141 7.76892 3.17432 7.74957 3.13869 7.69002C3.10298 7.63056 3.12233 7.55339 3.18172 7.51768L4.6365 6.64497C4.68731 6.61445 4.72326 6.56607 4.73758 6.50889C4.75331 6.44612 4.74135 6.38193 4.70407 6.32813C4.63941 6.23461 4.50113 6.20975 4.39628 6.27275L2.172 7.60712C2.12331 7.63622 2.06094 7.62915 2.02011 7.58974C1.97921 7.55025 1.97001 7.48819 1.99754 7.43856L2.46005 6.60525C2.50646 6.52195 2.50465 6.41906 2.45517 6.33663L2.4552 6.33659Z" fill="#103E13"/>
<path d="M11.1547 9.69151C10.9229 10.0781 10.5416 10.3427 10.0811 10.4368C9.62461 10.5299 9.14456 10.444 8.72908 10.1949L6.50319 8.85963C6.39488 8.79466 6.31827 8.69146 6.28759 8.5689C6.25715 8.44659 6.27619 8.31955 6.34108 8.21132C6.38159 8.14367 6.43838 8.09034 6.50422 8.05093L6.50359 8.05054C6.39527 7.98557 6.31866 7.88237 6.28815 7.75997C6.25747 7.63758 6.2765 7.51046 6.34148 7.40208C6.38332 7.33247 6.44066 7.27804 6.50611 7.23942C6.41109 7.17405 6.34266 7.07911 6.3145 6.96647C6.28382 6.844 6.30286 6.71696 6.36783 6.60872C6.43272 6.50041 6.536 6.42388 6.6584 6.39328C6.69662 6.38369 6.7354 6.37897 6.77379 6.37897C6.84914 6.37905 6.92308 6.39816 6.99104 6.43371C6.99521 6.3457 7.0214 6.25925 7.07285 6.18507C7.21388 5.98159 7.49642 5.92527 7.71651 6.05733L9.53927 7.15068L9.30431 6.72749C9.21417 6.56593 9.21748 6.3666 9.31305 6.20724C9.35961 6.12968 9.42616 6.06526 9.50568 6.02067C9.57104 5.98448 9.64184 5.96734 9.71168 5.96734C9.86168 5.96741 10.0074 6.04655 10.0849 6.18664C10.3552 6.67362 10.8652 7.59203 10.9011 7.65615C10.9087 7.66724 10.9317 7.70027 10.9515 7.72835C10.9703 7.75502 10.9906 7.7805 11.0116 7.80583C11.4667 8.35753 11.5216 9.08001 11.1547 9.69152L11.1547 9.69151ZM10.8178 7.96591C10.7928 7.93563 10.7682 7.90472 10.7459 7.87286C10.6779 7.77642 10.6762 7.77391 10.6711 7.74866C10.5916 7.61722 10.3978 7.2683 9.86508 6.30849C9.81836 6.22425 9.71217 6.1935 9.62761 6.24022C9.586 6.2635 9.55257 6.29599 9.52819 6.33666C9.47879 6.41901 9.4769 6.52189 9.52355 6.60544L9.9859 7.4385C10.0135 7.48822 10.0043 7.5502 9.96348 7.58969C9.92274 7.62925 9.86044 7.63617 9.81152 7.60707L7.58724 6.2727C7.48239 6.20986 7.34419 6.23448 7.27937 6.32808C7.24208 6.38188 7.23021 6.44607 7.24578 6.50876C7.2601 6.56602 7.29604 6.61432 7.34694 6.64484C7.34709 6.64491 7.34717 6.64507 7.34733 6.64515L8.80165 7.51763C8.86111 7.55334 8.88039 7.63042 8.84467 7.68997C8.80896 7.74935 8.73196 7.76878 8.67233 7.73299L6.88687 6.66191C6.83621 6.63155 6.77659 6.62258 6.71933 6.63698C6.66191 6.65129 6.61361 6.68716 6.58317 6.73805C6.55265 6.78878 6.54384 6.84833 6.558 6.90559C6.57232 6.96286 6.60826 7.01123 6.65907 7.04175L7.00651 7.25012L8.44446 8.11285C8.50392 8.14856 8.5232 8.22565 8.48748 8.28519C8.45177 8.34458 8.37477 8.36393 8.31514 8.32822L6.86052 7.4555C6.75591 7.39257 6.61967 7.42671 6.55674 7.53148C6.52622 7.5823 6.51741 7.64184 6.53157 7.6991C6.54589 7.75637 6.58184 7.80466 6.63273 7.83526L6.98936 8.04921L8.08735 8.70798C8.14681 8.74369 8.16609 8.82077 8.13037 8.88032C8.09466 8.9397 8.01766 8.95921 7.95803 8.92334L6.86005 8.26458C6.80939 8.23422 6.75001 8.22525 6.69243 8.23964C6.63516 8.25396 6.58671 8.28983 6.55627 8.34056C6.52583 8.39137 6.51694 8.451 6.5311 8.50818C6.54542 8.56544 6.58136 8.61374 6.63226 8.64434L8.85814 9.97963C9.21935 10.1963 9.63592 10.2714 10.0306 10.1908C10.4212 10.1111 10.7439 9.88791 10.9391 9.56242C11.2546 9.03682 11.2092 8.43997 10.8179 7.9659L10.8178 7.96591Z" fill="#103E13"/>
</svg>
