<svg width="13" height="11" viewBox="0 0 13 11" fill="none" xmlns="http://www.w3.org/2000/svg">
<path d="M7.51967 3.79987C7.4155 3.79987 7.33081 3.71532 7.33081 3.61101V3.29006C7.33081 3.18588 7.41536 3.1012 7.51967 3.1012C7.62384 3.1012 7.70853 3.18575 7.70853 3.29006V3.61101C7.70853 3.71532 7.62385 3.79987 7.51967 3.79987Z" fill="#103E13"/>
<path d="M6.7256 3.79987C6.62143 3.79987 6.53674 3.71532 6.53674 3.61101V3.29006C6.53674 3.18588 6.62129 3.1012 6.7256 3.1012C6.82978 3.1012 6.91446 3.18575 6.91446 3.29006V3.61101C6.91433 3.71532 6.82991 3.79987 6.7256 3.79987Z" fill="#103E13"/>
<path d="M5.93166 3.79987C5.82748 3.79987 5.7428 3.71532 5.7428 3.61101V3.29006C5.7428 3.18588 5.82735 3.1012 5.93166 3.1012C6.03583 3.1012 6.12052 3.18575 6.12052 3.29006V3.61101C6.12052 3.71532 6.03597 3.79987 5.93166 3.79987Z" fill="#103E13"/>
<path d="M7.51967 5.11236C7.4155 5.11236 7.33081 5.02781 7.33081 4.9235V4.60268C7.33081 4.4985 7.41536 4.41382 7.51967 4.41382C7.62384 4.41382 7.70853 4.49837 7.70853 4.60268V4.9235C7.70853 5.02781 7.62385 5.11236 7.51967 5.11236Z" fill="#103E13"/>
<path d="M6.7256 5.11236C6.62143 5.11236 6.53674 5.02781 6.53674 4.9235V4.60268C6.53674 4.4985 6.62129 4.41382 6.7256 4.41382C6.82978 4.41382 6.91446 4.49837 6.91446 4.60268V4.9235C6.91433 5.02781 6.82991 5.11236 6.7256 5.11236Z" fill="#103E13"/>
<path d="M5.93166 5.11236C5.82748 5.11236 5.7428 5.02781 5.7428 4.9235V4.60268C5.7428 4.4985 5.82735 4.41382 5.93166 4.41382C6.03583 4.41382 6.12052 4.49837 6.12052 4.60268V4.9235C6.12052 5.02781 6.03597 5.11236 5.93166 5.11236Z" fill="#103E13"/>
<path d="M7.51967 6.42487C7.4155 6.42487 7.33081 6.34032 7.33081 6.23601V5.91506C7.33081 5.81088 7.41536 5.7262 7.51967 5.7262C7.62384 5.7262 7.70853 5.81075 7.70853 5.91506V6.23601C7.70853 6.34032 7.62385 6.42487 7.51967 6.42487Z" fill="#103E13"/>
<path d="M6.7256 6.42487C6.62143 6.42487 6.53674 6.34032 6.53674 6.23601V5.91506C6.53674 5.81088 6.62129 5.7262 6.7256 5.7262C6.82978 5.7262 6.91446 5.81075 6.91446 5.91506V6.23601C6.91433 6.34032 6.82991 6.42487 6.7256 6.42487Z" fill="#103E13"/>
<path d="M5.93166 6.42487C5.82748 6.42487 5.7428 6.34032 5.7428 6.23601V5.91506C5.7428 5.81088 5.82735 5.7262 5.93166 5.7262C6.03583 5.7262 6.12052 5.81075 6.12052 5.91506V6.23601C6.12052 6.34032 6.03597 6.42487 5.93166 6.42487Z" fill="#103E13"/>
<path d="M7.51967 7.73712C7.4155 7.73712 7.33081 7.65257 7.33081 7.54826V7.22731C7.33081 7.12314 7.41536 7.03845 7.51967 7.03845C7.62384 7.03845 7.70853 7.123 7.70853 7.22731V7.54826C7.70853 7.65257 7.62385 7.73712 7.51967 7.73712Z" fill="#103E13"/>
<path d="M6.7256 7.73712C6.62143 7.73712 6.53674 7.65257 6.53674 7.54826V7.22731C6.53674 7.12314 6.62129 7.03845 6.7256 7.03845C6.82978 7.03845 6.91446 7.123 6.91446 7.22731V7.54826C6.91433 7.65257 6.82991 7.73712 6.7256 7.73712Z" fill="#103E13"/>
<path d="M5.93166 7.73712C5.82748 7.73712 5.7428 7.65257 5.7428 7.54826V7.22731C5.7428 7.12314 5.82735 7.03845 5.93166 7.03845C6.03583 7.03845 6.12052 7.123 6.12052 7.22731V7.54826C6.12052 7.65257 6.03597 7.73712 5.93166 7.73712Z" fill="#103E13"/>
<path d="M7.51967 9.04961C7.4155 9.04961 7.33081 8.96506 7.33081 8.86076V8.53993C7.33081 8.43576 7.41536 8.35107 7.51967 8.35107C7.62384 8.35107 7.70853 8.43563 7.70853 8.53993V8.86076C7.70853 8.96493 7.62385 9.04961 7.51967 9.04961Z" fill="#103E13"/>
<path d="M6.7256 9.04961C6.62143 9.04961 6.53674 8.96506 6.53674 8.86076V8.53993C6.53674 8.43576 6.62129 8.35107 6.7256 8.35107C6.82978 8.35107 6.91446 8.43563 6.91446 8.53993V8.86076C6.91433 8.96493 6.82991 9.04961 6.7256 9.04961Z" fill="#103E13"/>
<path d="M5.93166 9.04961C5.82748 9.04961 5.7428 8.96506 5.7428 8.86076L5.74293 8.53993C5.74293 8.43576 5.82748 8.35107 5.93179 8.35107C6.03596 8.35107 6.12065 8.43563 6.12065 8.53993V8.86076C6.12052 8.96493 6.03597 9.04961 5.93166 9.04961Z" fill="#103E13"/>
<path d="M0.536535 10.3557C0.536535 10.4599 0.621087 10.5446 0.725395 10.5446H12.2263C12.3305 10.5446 12.4152 10.46 12.4152 10.3557C12.4152 10.2515 12.3307 10.1668 12.2263 10.1668H11.8772V4.74442C11.8772 4.64025 11.7927 4.55556 11.6884 4.55556L8.60487 4.55569V0.646409C8.60487 0.580296 8.57036 0.519188 8.514 0.484943C8.45776 0.45057 8.38743 0.448463 8.32896 0.478885L4.82324 2.30413C4.76068 2.33666 4.7217 2.40119 4.7217 2.47165V5.88633H1.32894C1.22476 5.88633 1.14008 5.97089 1.14008 6.07519V10.1669H0.724974C0.6208 10.1667 0.536377 10.2513 0.536377 10.3556L0.536535 10.3557ZM8.60494 7.41604H11.4997V10.167L8.60494 10.1669V7.41604ZM8.60494 6.10364H11.4997V7.03846L8.60494 7.03833V6.10364ZM8.60494 4.93321H11.4997V5.7262H8.60494V4.93321ZM5.09922 2.58633L8.22709 0.957712V10.1667H5.09922V2.58633ZM2.45139 8.65845C2.45139 8.26651 2.76194 7.94753 3.14374 7.94753C3.52553 7.94753 3.83622 8.26637 3.83622 8.65845V10.1669H2.45139V8.65845ZM1.51778 6.26399H4.72165V10.1669H4.21393V8.65838C4.21393 8.05821 3.73402 7.56988 3.14374 7.56988C2.55372 7.56988 2.07382 8.05808 2.07382 8.65838V10.1669H1.51778V6.26399Z" fill="#103E13"/>
</svg>
