<svg width="17" height="17" viewBox="0 0 17 17" fill="none" xmlns="http://www.w3.org/2000/svg">
<path d="M8.14849 3.79138C6.95617 3.79138 5.98552 4.77091 5.98552 5.96831C5.98552 6.72579 6.37449 7.39462 6.96185 7.78448C6.25244 8.02168 5.63859 8.46502 5.18835 9.045C4.93944 8.85353 4.6613 8.69955 4.36146 8.58921C4.81614 8.25166 5.11327 7.70942 5.11327 7.09999C5.11327 6.08445 4.29193 5.25311 3.28255 5.25311C2.27316 5.25311 1.45183 6.08445 1.45183 7.09999C1.45183 7.70977 1.7492 8.25226 2.20426 8.58981C0.999481 9.03439 0.139038 10.1984 0.139038 11.5682V12.5305C0.139161 12.6038 0.168504 12.6741 0.220531 12.7258C0.272558 12.7776 0.342957 12.8064 0.416313 12.8062H4.63804C4.64828 12.8073 4.65851 12.8079 4.66874 12.8078H11.6285C11.6387 12.8079 11.6491 12.8073 11.6592 12.8062H15.8812C16.033 12.8055 16.1559 12.6824 16.1563 12.5305V11.5682C16.1563 10.1984 15.2973 9.03439 14.0932 8.58969C14.5482 8.25226 14.8456 7.70964 14.8456 7.09987C14.8456 6.08433 14.0243 5.25299 13.0149 5.25299C12.0055 5.25299 11.1842 6.08433 11.1842 7.09987C11.1842 7.7093 11.4814 8.25163 11.9361 8.58909C11.6356 8.69968 11.3574 8.85416 11.1081 9.0461C10.6581 8.46577 10.0451 8.02182 9.3357 7.78448C9.92291 7.39462 10.312 6.72579 10.312 5.96831C10.312 4.77091 9.34088 3.79138 8.14856 3.79138H8.14849ZM8.14849 4.34372C9.04024 4.34372 9.75913 5.06743 9.75913 5.96831C9.75913 6.86214 9.05145 7.57882 8.16957 7.59031C8.16255 7.59031 8.15564 7.58932 8.14849 7.58932C8.14134 7.58932 8.13456 7.59031 8.12741 7.59031C7.24553 7.57896 6.53833 6.86217 6.53833 5.96831C6.53833 5.06731 7.25661 4.34372 8.14837 4.34372H8.14849ZM3.28258 5.80541C3.99014 5.80541 4.56097 6.37969 4.56097 7.09996C4.56097 7.81541 3.99752 8.38722 3.29662 8.39498C3.29194 8.39498 3.28738 8.39449 3.28257 8.39449C3.27788 8.39449 3.27332 8.39498 3.26851 8.39498C2.56762 8.38721 2.00417 7.81528 2.00417 7.09996C2.00417 6.37972 2.575 5.80541 3.28256 5.80541H3.28258ZM13.0147 5.80541C13.7223 5.80541 14.2931 6.37969 14.2931 7.09996C14.2931 7.81541 13.7297 8.38722 13.0288 8.39498C13.0241 8.39498 13.0195 8.39449 13.0147 8.39449C13.01 8.39449 13.0055 8.39498 13.0007 8.39498C12.2998 8.38721 11.7363 7.81528 11.7363 7.09996C11.7363 6.37972 12.3071 5.80541 13.0147 5.80541H13.0147ZM8.12734 8.14261C8.13437 8.14273 8.14128 8.1436 8.14843 8.1436C8.15545 8.1436 8.16236 8.14261 8.16951 8.14261C9.93808 8.15395 11.3535 9.58152 11.3535 11.3686L11.3534 12.2553H4.94375V11.3686C4.94375 9.58136 6.35874 8.15397 8.12709 8.14261H8.12734ZM3.26143 8.94795C3.26846 8.94807 3.27536 8.94893 3.28252 8.94893C3.28967 8.94893 3.29645 8.94795 3.3036 8.94795C3.90179 8.95275 4.44772 9.15902 4.88242 9.5041C4.57136 10.0545 4.39148 10.6898 4.39148 11.3687V12.2533H0.69115V11.5682C0.69115 10.1158 1.83306 8.95928 3.26137 8.94782L3.26143 8.94795ZM12.9936 8.94795C13.0007 8.94807 13.0075 8.94893 13.0147 8.94893C13.0218 8.94893 13.0286 8.94795 13.0357 8.94795C14.464 8.95929 15.606 10.116 15.606 11.5683V12.2533H11.9037L11.9036 11.3687C11.9036 10.6901 11.7242 10.0553 11.4138 9.50508C11.8486 9.15951 12.3949 8.95274 12.9936 8.94795H12.9936Z" fill="#103E13"/>
</svg>
