<svg width="17" height="10" viewBox="0 0 17 10" fill="none" xmlns="http://www.w3.org/2000/svg">
<path d="M8.14849 0.791382C6.95617 0.791382 5.98552 1.77091 5.98552 2.96831C5.98552 3.72579 6.37449 4.39462 6.96185 4.78448C6.25244 5.02168 5.63859 5.46502 5.18835 6.045C4.93944 5.85353 4.6613 5.69955 4.36146 5.58921C4.81614 5.25166 5.11327 4.70942 5.11327 4.09999C5.11327 3.08445 4.29193 2.25311 3.28255 2.25311C2.27316 2.25311 1.45183 3.08445 1.45183 4.09999C1.45183 4.70977 1.7492 5.25226 2.20426 5.58981C0.999481 6.03439 0.139038 7.19837 0.139038 8.56822V9.53048C0.139161 9.60384 0.168504 9.67412 0.220531 9.72577C0.272558 9.77755 0.342957 9.8064 0.416313 9.80616H4.63804C4.64828 9.80727 4.65851 9.80788 4.66874 9.80776H11.6285C11.6387 9.80788 11.6491 9.80727 11.6592 9.80616H15.8812C16.033 9.80554 16.1559 9.68237 16.1563 9.53048V8.56822C16.1563 7.19837 15.2973 6.03439 14.0932 5.58969C14.5482 5.25226 14.8456 4.70964 14.8456 4.09987C14.8456 3.08433 14.0243 2.25299 13.0149 2.25299C12.0055 2.25299 11.1842 3.08433 11.1842 4.09987C11.1842 4.7093 11.4814 5.25163 11.9361 5.58909C11.6356 5.69968 11.3574 5.85416 11.1081 6.0461C10.6581 5.46577 10.0451 5.02182 9.3357 4.78448C9.92291 4.39462 10.312 3.72579 10.312 2.96831C10.312 1.77091 9.34088 0.791382 8.14856 0.791382H8.14849ZM8.14849 1.34372C9.04024 1.34372 9.75913 2.06743 9.75913 2.96831C9.75913 3.86214 9.05145 4.57882 8.16957 4.59031C8.16255 4.59031 8.15564 4.58932 8.14849 4.58932C8.14134 4.58932 8.13456 4.59031 8.12741 4.59031C7.24553 4.57896 6.53833 3.86217 6.53833 2.96831C6.53833 2.06731 7.25661 1.34372 8.14837 1.34372H8.14849ZM3.28258 2.80541C3.99014 2.80541 4.56097 3.37969 4.56097 4.09996C4.56097 4.81541 3.99752 5.38722 3.29662 5.39498C3.29194 5.39498 3.28738 5.39449 3.28257 5.39449C3.27788 5.39449 3.27332 5.39498 3.26851 5.39498C2.56762 5.38721 2.00417 4.81528 2.00417 4.09996C2.00417 3.37972 2.575 2.80541 3.28256 2.80541H3.28258ZM13.0147 2.80541C13.7223 2.80541 14.2931 3.37969 14.2931 4.09996C14.2931 4.81541 13.7297 5.38722 13.0288 5.39498C13.0241 5.39498 13.0195 5.39449 13.0147 5.39449C13.01 5.39449 13.0055 5.39498 13.0007 5.39498C12.2998 5.38721 11.7363 4.81528 11.7363 4.09996C11.7363 3.37972 12.3071 2.80541 13.0147 2.80541H13.0147ZM8.12734 5.14261C8.13437 5.14273 8.14128 5.1436 8.14843 5.1436C8.15545 5.1436 8.16236 5.14261 8.16951 5.14261C9.93808 5.15395 11.3535 6.58152 11.3535 8.36856L11.3534 9.25526H4.94375V8.36856C4.94375 6.58136 6.35874 5.15397 8.12709 5.14261H8.12734ZM3.26143 5.94795C3.26846 5.94807 3.27536 5.94893 3.28252 5.94893C3.28967 5.94893 3.29645 5.94795 3.3036 5.94795C3.90179 5.95275 4.44772 6.15902 4.88242 6.5041C4.57136 7.05448 4.39148 7.68976 4.39148 8.36872V9.25331H0.69115V8.56819C0.69115 7.11583 1.83306 5.95928 3.26137 5.94782L3.26143 5.94795ZM12.9936 5.94795C13.0007 5.94807 13.0075 5.94893 13.0147 5.94893C13.0218 5.94893 13.0286 5.94795 13.0357 5.94795C14.464 5.95929 15.606 7.11599 15.606 8.56832V9.25331H11.9037L11.9036 8.36872C11.9036 7.69014 11.7242 7.05533 11.4138 6.50508C11.8486 6.15951 12.3949 5.95274 12.9936 5.94795H12.9936Z" fill="#103E13"/>
</svg>
